<svg xmlns="http://www.w3.org/2000/svg" width="9.328" height="17.289" viewBox="0 0 9.328 17.289"><path d="M559.371,257.224H558.2c-.324,0-.648.006-.972,0s-.449-.11-.452-.445q-.011-1.32,0-2.641c0-.333.122-.439.456-.441.627,0,1.253,0,1.88,0h.26c0-.1,0-.177,0-.259.014-.8-.016-1.608.053-2.405a3.8,3.8,0,0,1,3.764-3.548c.83-.027,1.661-.012,2.492-.01.292,0,.411.12.412.414q.006,1.236,0,2.472c0,.316-.112.43-.436.438-.57.013-1.141.014-1.711.022-.639.01-.908.26-.922.891s0,1.278,0,1.942h.247q1.088,0,2.176,0c.457,0,.565.107.565.556q0,1.257,0,2.514c0,.375-.1.476-.477.477-.824,0-1.647,0-2.51,0v.273q0,3.306,0,6.612c0,.608-.065.671-.682.671q-1.215,0-2.429,0c-.433,0-.539-.105-.539-.534q0-3.359,0-6.718Z" transform="translate(-556.769 -247.466)" fill="#fff"/></svg>