<svg xmlns="http://www.w3.org/2000/svg" width="16.721" height="16.713" viewBox="0 0 16.721 16.713"><path d="M46.8,365.33a.57.57,0,0,0-.632-.562q-3.337,0-6.675,0a.543.543,0,0,0-.609.6q0,1.011,0,2.022c0,.442.2.637.647.637H43.06a.362.362,0,0,1,.2.021c-.03.074-.056.146-.087.215a5.152,5.152,0,0,1-2.1,2.349h0c-.053.025-.108.047-.159.075a5.116,5.116,0,0,1-2.056.6.944.944,0,0,0-.359.026h0c-.035,0-.071-.009-.106-.011a5.056,5.056,0,0,1-3.43-1.462,6.516,6.516,0,0,1-.851-1.075h0c-.022-.049-.041-.1-.066-.146a4.987,4.987,0,0,1-.489-3.51,5.893,5.893,0,0,1,.557-1.442h0c.034-.049.069-.1.1-.146a5.089,5.089,0,0,1,2.607-2.1,4.942,4.942,0,0,1,2-.28,5.077,5.077,0,0,1,2.878,1.113.558.558,0,0,0,.828-.038q.743-.736,1.479-1.48a.548.548,0,0,0-.044-.858,8.32,8.32,0,0,0-2.023-1.291,7.931,7.931,0,0,0-3.4-.726h0a5.953,5.953,0,0,0-1.175.074,8.267,8.267,0,0,0-4.777,2.4,7.218,7.218,0,0,0-1.287,1.7c-.03.044-.063.086-.088.132a8.241,8.241,0,0,0-.749,6.253,6.888,6.888,0,0,0,.838,1.959c.021.042.038.087.062.127A8.287,8.287,0,0,0,34.8,373.7a8.048,8.048,0,0,0,3.7.869,7.734,7.734,0,0,0,2.841-.482,5.907,5.907,0,0,0,1.357-.646h0c.037-.018.077-.033.112-.055a8.2,8.2,0,0,0,3.494-4.079A7.769,7.769,0,0,0,46.8,365.33Z" transform="translate(-30.157 -357.861)" fill="#fff"/></svg>